<svg width="59" height="77" viewBox="0 0 59 77" fill="none" xmlns="http://www.w3.org/2000/svg">
<path d="M54.8696 8.98C56.9096 10.06 58.1996 11.65 58.7396 13.75C57.5396 20.47 56.4596 27.16 55.4996 33.82C54.5396 40.42 53.6096 45.97 52.7096 50.47C51.8096 54.91 51.1796 58.24 50.8196 60.46C50.5196 62.68 50.1596 64.9 49.7396 67.12L49.1996 69.01C49.0796 69.67 48.9596 70.27 48.8396 70.81C48.7196 71.41 48.5996 72.04 48.4796 72.7C46.7996 74.62 44.5196 75.58 41.6396 75.58C38.5796 75.58 36.1496 74.8 34.3496 73.24C33.2696 72.4 33.0896 70.63 33.8096 67.93C34.1096 66.85 34.2896 65.47 34.3496 63.79C34.4696 62.05 34.5896 60.61 34.7096 59.47V59.29C32.9096 59.95 31.2896 60.82 29.8496 61.9C28.4096 62.92 27.5096 63.58 27.1496 63.88C26.7896 64.12 26.3096 64.33 25.7096 64.51C25.1096 64.63 24.5696 64.72 24.0896 64.78C22.9496 64.84 22.1696 65.02 21.7496 65.32C18.2696 71.56 15.1496 75.04 12.3896 75.76C10.6496 76.3 8.90961 76.42 7.16961 76.12C5.42961 75.88 4.04961 74.86 3.02961 73.06C1.10961 71.26 1.58961 66.34 4.46961 58.3C6.02961 54.04 8.24961 48.94 11.1296 43C14.0696 37 16.8896 31.78 19.5896 27.34C25.4096 17.8 31.7996 9.76 38.7596 3.22C39.8996 2.74 41.1296 2.19999 42.4496 1.6C43.7696 0.939997 45.0596 0.579998 46.3196 0.519999C47.6396 0.459996 48.9896 0.609996 50.3696 0.969998C51.7496 1.33 52.9196 1.87 53.8796 2.59C56.0996 4.27 56.4296 6.4 54.8696 8.98ZM35.6096 32.65C34.3496 36.25 33.0896 39.58 31.8296 42.64C30.5696 45.64 29.4896 48.28 28.5896 50.56L35.6996 50.29C36.1796 46.45 36.7196 42.64 37.3196 38.86C37.9196 35.08 38.4896 31.3 39.0296 27.52L35.6096 32.65ZM33.1796 50.65C34.0196 50.65 34.8596 50.59 35.6996 50.47V50.38C34.9196 50.44 34.1996 50.5 33.5396 50.56C32.8796 50.62 32.7596 50.65 33.1796 50.65Z" fill="#BFBFBF"/>
</svg>
